<svg xmlns="http://www.w3.org/2000/svg" viewBox="0 0 48 48" width="48" height="48">
  <defs>
    <linearGradient id="grad1" x1="0%" y1="0%" x2="100%" y2="100%">
      <stop offset="0%" style="stop-color:#4CAF50;stop-opacity:1" />
      <stop offset="100%" style="stop-color:#2196F3;stop-opacity:1" />
    </linearGradient>
  </defs>
  
  <!-- 背景圆形 -->
  <circle cx="24" cy="24" r="22" fill="url(#grad1)" stroke="#fff" stroke-width="2"/>
  
  <!-- 云朵图标 -->
  <path d="M15 20c-3 0-5.5 2.5-5.5 5.5S12 31 15 31h15c2.2 0 4-1.8 4-4s-1.8-4-4-4c0-3.3-2.7-6-6-6s-6 2.7-6 6c-1.1-2.2-3-3.5-5-3.5z" fill="white" opacity="0.9"/>
  
  <!-- 上传箭头 -->
  <path d="M24 17v9M20 21l4-4 4 4" stroke="white" stroke-width="2" fill="none" stroke-linecap="round" stroke-linejoin="round"/>
  
  <!-- 图片框 -->
  <rect x="17" y="28" width="14" height="10" rx="1" fill="white" opacity="0.8"/>
  <rect x="18" y="29" width="12" height="8" rx="0.8" fill="#E3F2FD"/>
  
  <!-- 图片图标 -->
  <circle cx="20" cy="32" r="1.2" fill="#2196F3"/>
  <path d="M18 36l3-3 2.2 2.2 3-3 1.8 1.8v2H18z" fill="#2196F3"/>
</svg>