<svg xmlns="http://www.w3.org/2000/svg" viewBox="0 0 16 16" width="16" height="16">
  <defs>
    <linearGradient id="grad1" x1="0%" y1="0%" x2="100%" y2="100%">
      <stop offset="0%" style="stop-color:#4CAF50;stop-opacity:1" />
      <stop offset="100%" style="stop-color:#2196F3;stop-opacity:1" />
    </linearGradient>
  </defs>
  
  <!-- 背景圆形 -->
  <circle cx="8" cy="8" r="7.5" fill="url(#grad1)" stroke="#fff" stroke-width="0.5"/>
  
  <!-- 云朵图标 -->
  <path d="M5 7c-1 0-2 1-2 2s1 2 2 2h5c0.8 0 1.5-0.7 1.5-1.5S10.8 8 10 8c0-1.1-0.9-2-2-2s-2 0.9-2 2c-0.4-0.8-1.1-1-1.5-1z" fill="white" opacity="0.9"/>
  
  <!-- 上传箭头 -->
  <path d="M8 6v3M6.5 7.5L8 6l1.5 1.5" stroke="white" stroke-width="0.5" fill="none" stroke-linecap="round" stroke-linejoin="round"/>
  
  <!-- 图片框 -->
  <rect x="5.5" y="10" width="5" height="3.5" rx="0.3" fill="white" opacity="0.8"/>
  <rect x="6" y="10.5" width="4" height="2.5" rx="0.2" fill="#E3F2FD"/>
  
  <!-- 图片图标 -->
  <circle cx="6.5" cy="11.5" r="0.4" fill="#2196F3"/>
  <path d="M6 13l1-1 0.8 0.8 1-1 0.7 0.7v0.5H6z" fill="#2196F3"/>
</svg>