<svg xmlns="http://www.w3.org/2000/svg" viewBox="0 0 128 128" width="128" height="128">
  <defs>
    <linearGradient id="grad1" x1="0%" y1="0%" x2="100%" y2="100%">
      <stop offset="0%" style="stop-color:#4CAF50;stop-opacity:1" />
      <stop offset="100%" style="stop-color:#2196F3;stop-opacity:1" />
    </linearGradient>
  </defs>
  
  <!-- 背景圆形 -->
  <circle cx="64" cy="64" r="60" fill="url(#grad1)" stroke="#fff" stroke-width="4"/>
  
  <!-- 云朵图标 -->
  <path d="M40 55c-8 0-15 7-15 15s7 15 15 15h40c6 0 10-4 10-10s-4-10-10-10c0-8-7-15-15-15s-15 7-15 15c-3-6-8-10-15-10z" fill="white" opacity="0.9"/>
  
  <!-- 上传箭头 -->
  <path d="M64 45v25M54 55l10-10 10 10" stroke="white" stroke-width="3" fill="none" stroke-linecap="round" stroke-linejoin="round"/>
  
  <!-- 图片框 -->
  <rect x="45" y="75" width="38" height="28" rx="3" fill="white" opacity="0.8"/>
  <rect x="48" y="78" width="32" height="22" rx="2" fill="#E3F2FD"/>
  
  <!-- 图片图标 -->
  <circle cx="53" cy="85" r="3" fill="#2196F3"/>
  <path d="M48 95l8-8 6 6 8-8 5 5v5H48z" fill="#2196F3"/>
</svg>